<svg  viewBox="0 0 270 188" fill="none" xmlns="http://www.w3.org/2000/svg">
	<g clip-path="url(#clip0)">
		<path d="M245.792 97.5727C242.152 107.867 237.08 117.597 230.726 126.476C230.579 126.682 230.431 126.884 230.281 127.089L211.002 120.845C211.09 120.646 211.185 120.423 211.286 120.179C217.357 105.815 253.896 18.2546 250.016 0C250.387 1.49897 262.493 51.0914 245.792 97.5727Z" fill="#2441C9" />
		<path d="M234.445 127.681C234.21 127.858 233.967 128.033 233.723 128.204L219.26 123.52C219.433 123.36 219.634 123.171 219.866 122.958C223.652 119.419 234.899 108.815 245.792 97.5727C257.498 85.4918 268.798 72.6771 270 67.1039C269.774 68.3755 262.641 107.061 234.445 127.681Z" fill="#2441C9" />
		<path d="M256.231 187.129H8.31284C6.10814 187.129 3.99373 186.253 2.43477 184.693C0.875814 183.134 0 181.019 0 178.814C89.8704 168.367 178.052 168.367 264.544 178.814C264.544 181.019 263.668 183.134 262.109 184.693C260.55 186.253 258.436 187.129 256.231 187.129Z" fill="#2F2E41" />
		<path d="M264.544 179.303L0 178.814L30.6597 127.214L30.8064 126.97V13.2499C30.8063 11.8696 31.0781 10.5028 31.6061 9.22754C32.1342 7.95227 32.9082 6.79354 33.884 5.81751C34.8598 4.84148 36.0183 4.06727 37.2933 3.5391C38.5683 3.01093 39.9348 2.73914 41.3148 2.73926H221.762C223.142 2.73914 224.509 3.01093 225.784 3.5391C227.059 4.06727 228.217 4.84148 229.193 5.81751C230.169 6.79354 230.943 7.95227 231.471 9.22754C231.999 10.5028 232.271 11.8696 232.271 13.2499V127.752L264.544 179.303Z" fill="#3F3D56" />
		<path d="M41.0752 10.0757C40.1677 10.0767 39.2976 10.4377 38.6559 11.0796C38.0142 11.7214 37.6533 12.5917 37.6523 13.4994V117.188C37.6533 118.096 38.0143 118.966 38.656 119.608C39.2977 120.249 40.1677 120.611 41.0752 120.612H223.469C224.376 120.61 225.246 120.249 225.888 119.608C226.53 118.966 226.891 118.096 226.892 117.188V13.4994C226.891 12.5917 226.53 11.7215 225.888 11.0796C225.246 10.4378 224.376 10.0767 223.469 10.0757H41.0752Z" fill="white" />
		<path d="M42.2739 134.306C41.9935 134.307 41.719 134.387 41.4829 134.539C41.2467 134.69 41.0588 134.906 40.9411 135.16L31.4939 155.702C31.391 155.926 31.3461 156.172 31.3631 156.417C31.3801 156.663 31.4586 156.9 31.5913 157.107C31.724 157.314 31.9067 157.485 32.1225 157.603C32.3383 157.721 32.5804 157.783 32.8264 157.783H231.496C231.747 157.783 231.992 157.719 232.211 157.597C232.429 157.475 232.613 157.3 232.744 157.087C232.876 156.874 232.951 156.631 232.962 156.381C232.973 156.132 232.92 155.883 232.808 155.659L222.539 135.117C222.418 134.873 222.231 134.668 221.999 134.524C221.768 134.381 221.5 134.305 221.228 134.306L42.2739 134.306Z" fill="#2F2E41" />
		<path d="M131.539 8.36384C132.754 8.36384 133.739 7.37845 133.739 6.16291C133.739 4.94737 132.754 3.96198 131.539 3.96198C130.323 3.96198 129.338 4.94737 129.338 6.16291C129.338 7.37845 130.323 8.36384 131.539 8.36384Z" fill="white" />
		<path d="M112.011 161.696C111.688 161.696 111.375 161.803 111.119 161.999C110.863 162.195 110.679 162.47 110.595 162.781L108.225 171.585C108.166 171.803 108.158 172.031 108.202 172.252C108.246 172.472 108.34 172.68 108.477 172.859C108.614 173.038 108.79 173.183 108.992 173.282C109.194 173.382 109.416 173.434 109.641 173.434H154.708C154.942 173.434 155.173 173.378 155.381 173.271C155.588 173.164 155.768 173.008 155.903 172.818C156.039 172.627 156.127 172.407 156.16 172.175C156.193 171.944 156.171 171.708 156.094 171.487L153.048 162.683C152.948 162.395 152.76 162.145 152.512 161.968C152.264 161.791 151.966 161.696 151.661 161.696L112.011 161.696Z" fill="#2F2E41" />
		<path d="M232.271 125.258V127.215H30.6595L30.8114 126.971V125.258H232.271Z" fill="#2F2E41" />
		<path d="M169.59 28.3953H122.022V29.2643H169.59C171.932 29.2643 174.178 30.1948 175.834 31.8512C177.49 33.5075 178.421 35.754 178.421 38.0965C178.421 40.4389 177.49 42.6854 175.834 44.3417C174.178 45.9981 171.932 46.9286 169.59 46.9286H97.6114C95.2694 46.9286 93.0234 45.9981 91.3674 44.3417C89.7114 42.6854 88.7811 40.4389 88.7811 38.0965C88.7811 35.754 89.7114 33.5075 91.3674 31.8512C93.0234 30.1948 95.2694 29.2643 97.6114 29.2643H100.301V28.3953H97.6114C95.04 28.3968 92.5745 29.4195 90.7568 31.2387C88.9391 33.0578 87.918 35.5245 87.918 38.0965C87.918 40.6684 88.9391 43.1351 90.7568 44.9542C92.5745 46.7734 95.04 47.7961 97.6114 47.7976H169.59C170.865 47.7984 172.126 47.548 173.304 47.0608C174.481 46.5736 175.551 45.8592 176.452 44.9582C177.354 44.0573 178.069 42.9876 178.556 41.8103C179.044 40.6329 179.295 39.3709 179.295 38.0965C179.295 36.822 179.044 35.56 178.556 34.3827C178.069 33.2053 177.354 32.1356 176.452 31.2347C175.551 30.3338 174.481 29.6193 173.304 29.1321C172.126 28.6449 170.865 28.3945 169.59 28.3953Z" fill="#E6E6E6" />
		<path d="M169.59 58.3766H122.022V59.2456H169.59C171.931 59.247 174.176 60.1782 175.831 61.8344C177.486 63.4906 178.415 65.7363 178.415 68.0778C178.415 70.4193 177.486 72.6649 175.831 74.3211C174.176 75.9773 171.931 76.9085 169.59 76.9099H97.6114C95.2694 76.9099 93.0234 75.9794 91.3674 74.3231C89.7114 72.6667 88.7811 70.4202 88.7811 68.0778C88.7811 65.7353 89.7114 63.4888 91.3674 61.8325C93.0234 60.1761 95.2694 59.2456 97.6114 59.2456H100.301V58.3766H97.6114C95.04 58.3781 92.5745 59.4008 90.7568 61.22C88.9391 63.0392 87.918 65.5058 87.918 68.0778C87.918 70.6497 88.9391 73.1164 90.7568 74.9355C92.5745 76.7547 95.04 77.7774 97.6114 77.779H169.59C170.865 77.7797 172.126 77.5293 173.304 77.0421C174.481 76.5549 175.551 75.8405 176.452 74.9396C177.354 74.0386 178.069 72.9689 178.556 71.7916C179.044 70.6142 179.295 69.3522 179.295 68.0778C179.295 66.8033 179.044 65.5414 178.556 64.364C178.069 63.1866 177.354 62.1169 176.452 61.216C175.551 60.3151 174.481 59.6006 173.304 59.1134C172.126 58.6262 170.865 58.3758 169.59 58.3766Z" fill="#E6E6E6" />
		<path d="M169.59 88.3578H122.022V89.2269H169.59C171.932 89.2269 174.178 90.1574 175.834 91.8138C177.49 93.4701 178.421 95.7166 178.421 98.059C178.421 100.401 177.49 102.648 175.834 104.304C174.178 105.961 171.932 106.891 169.59 106.891H97.6113C95.2694 106.891 93.0234 105.961 91.3674 104.304C89.7114 102.648 88.7811 100.401 88.7811 98.059C88.7811 95.7166 89.7114 93.4701 91.3674 91.8138C93.0234 90.1574 95.2694 89.2269 97.6113 89.2269H100.301V88.3578H97.6113C95.039 88.3578 92.572 89.3799 90.753 91.1993C88.9341 93.0186 87.9122 95.4861 87.9122 98.059C87.9122 100.632 88.9341 103.099 90.753 104.919C92.572 106.738 95.039 107.76 97.6113 107.76H169.59C170.864 107.76 172.125 107.509 173.302 107.022C174.479 106.534 175.548 105.82 176.449 104.919C177.349 104.018 178.064 102.949 178.551 101.772C179.039 100.595 179.289 99.333 179.289 98.059C179.289 96.7851 179.039 95.5236 178.551 94.3465C178.064 93.1695 177.349 92.1001 176.449 91.1993C175.548 90.2984 174.479 89.5838 173.302 89.0963C172.125 88.6088 170.864 88.3578 169.59 88.3578Z" fill="#E6E6E6" />
		<path d="M105.67 26.0995C104.993 26.1105 104.346 26.3875 103.871 26.8709C103.395 27.3542 103.129 28.0051 103.129 28.6831C103.129 29.3611 103.395 30.012 103.871 30.4953C104.346 30.9787 104.993 31.2557 105.67 31.2667H117.003C117.342 31.2723 117.679 31.211 117.994 31.0863C118.31 30.9616 118.598 30.776 118.842 30.54C119.085 30.304 119.28 30.0223 119.415 29.711C119.55 29.3997 119.622 29.0648 119.628 28.7255C119.634 28.3862 119.572 28.0492 119.448 27.7336C119.323 27.418 119.137 27.1301 118.901 26.8862C118.666 26.6424 118.384 26.4474 118.073 26.3124C117.761 26.1774 117.427 26.1051 117.087 26.0995C117.059 26.099 117.031 26.099 117.003 26.0995H105.67Z" fill="#3F3D56" />
		<path d="M105.67 56.5153C104.993 56.5263 104.346 56.8033 103.871 57.2866C103.395 57.77 103.129 58.4208 103.129 59.0989C103.129 59.7769 103.395 60.4278 103.871 60.9111C104.346 61.3945 104.993 61.6715 105.67 61.6825H117.003C117.688 61.6938 118.349 61.4324 118.841 60.9558C119.334 60.4792 119.617 59.8265 119.628 59.1413C119.639 58.4561 119.378 57.7945 118.901 57.302C118.425 56.8095 117.772 56.5265 117.087 56.5153C117.059 56.5148 117.031 56.5148 117.003 56.5153H105.67Z" fill="#3F3D56" />
		<path d="M105.67 86.062C104.993 86.0731 104.346 86.3501 103.871 86.8335C103.396 87.3168 103.129 87.9676 103.129 88.6456C103.129 89.3236 103.396 89.9745 103.871 90.4578C104.346 90.9411 104.993 91.2182 105.67 91.2292H117.002C117.688 91.2405 118.349 90.9791 118.841 90.5025C119.334 90.0259 119.617 89.3733 119.628 88.688C119.639 88.0028 119.378 87.3412 118.901 86.8487C118.425 86.3562 117.772 86.0733 117.087 86.062C117.059 86.0615 117.031 86.0615 117.002 86.062H105.67Z" fill="#3F3D56" />
		<path d="M101.176 35.5129C100.498 35.5239 99.8517 35.8009 99.3762 36.2842C98.9008 36.7676 98.6343 37.4185 98.6343 38.0965C98.6343 38.7745 98.9008 39.4254 99.3762 39.9087C99.8517 40.3921 100.498 40.6691 101.176 40.6801H165.941C166.28 40.6857 166.617 40.6244 166.933 40.4997C167.248 40.375 167.536 40.1894 167.78 39.9534C168.024 39.7174 168.219 39.4357 168.354 39.1244C168.489 38.8131 168.561 38.4782 168.567 38.1389C168.572 37.7996 168.511 37.4626 168.386 37.147C168.262 36.8314 168.076 36.5434 167.84 36.2996C167.604 36.0557 167.323 35.8608 167.011 35.7258C166.7 35.5908 166.365 35.5184 166.026 35.5129C165.998 35.5124 165.97 35.5124 165.941 35.5129H101.176Z" fill="#E91962" />
		<path d="M101.176 65.4941C100.498 65.5052 99.8517 65.7823 99.3763 66.2656C98.9009 66.7489 98.6345 67.3997 98.6345 68.0778C98.6345 68.7558 98.9009 69.4066 99.3763 69.8899C99.8517 70.3733 100.498 70.6503 101.176 70.6614H165.941C166.28 70.667 166.617 70.6056 166.933 70.481C167.248 70.3563 167.536 70.1706 167.78 69.9346C168.024 69.6987 168.219 69.417 168.354 69.1057C168.489 68.7943 168.561 68.4595 168.567 68.1202C168.572 67.7809 168.511 67.4438 168.386 67.1282C168.262 66.8126 168.076 66.5247 167.84 66.2809C167.604 66.037 167.323 65.842 167.011 65.707C166.7 65.572 166.365 65.4997 166.026 65.4941C165.998 65.4937 165.969 65.4937 165.941 65.4941H101.176Z" fill="#E91962" />
		<path d="M101.176 95.4755C100.498 95.4865 99.8517 95.7636 99.3763 96.2469C98.9009 96.7302 98.6345 97.3811 98.6345 98.0591C98.6345 98.7371 98.9009 99.3879 99.3763 99.8713C99.8517 100.355 100.498 100.632 101.176 100.643H165.941C166.28 100.648 166.617 100.587 166.933 100.462C167.248 100.338 167.536 100.152 167.78 99.916C168.024 99.68 168.219 99.3983 168.354 99.087C168.489 98.7756 168.561 98.4408 168.567 98.1015C168.572 97.7622 168.511 97.4251 168.386 97.1096C168.262 96.794 168.076 96.506 167.84 96.2622C167.604 96.0183 167.323 95.8233 167.011 95.6884C166.7 95.5534 166.365 95.481 166.026 95.4755C165.998 95.475 165.969 95.475 165.941 95.4755H101.176Z" fill="#E6E6E6" />
		<path d="M77.1212 43.0669C79.9781 43.0669 82.2941 40.7504 82.2941 37.8929C82.2941 35.0354 79.9781 32.7189 77.1212 32.7189C74.2643 32.7189 71.9484 35.0354 71.9484 37.8929C71.9484 40.7504 74.2643 43.0669 77.1212 43.0669Z" fill="#E91962" />
		<path d="M76.6412 40.0187L75.1343 38.0807L76.0106 37.3988L76.7243 38.3164L79.1346 35.7714L79.9409 36.5353L76.6412 40.0187Z" fill="white" />
		<path d="M77.1212 73.0482C79.9781 73.0482 82.2941 70.7318 82.2941 67.8742C82.2941 65.0167 79.9781 62.7003 77.1212 62.7003C74.2643 62.7003 71.9484 65.0167 71.9484 67.8742C71.9484 70.7318 74.2643 73.0482 77.1212 73.0482Z" fill="#E91962" />
		<path d="M76.6412 70L75.1343 68.062L76.0106 67.3802L76.7243 68.2977L79.1346 65.7527L79.9409 66.5167L76.6412 70Z" fill="white" />
		<path d="M77.1212 103.03C79.9781 103.03 82.2941 100.713 82.2941 97.8555C82.2941 94.998 79.9781 92.6815 77.1212 92.6815C74.2643 92.6815 71.9484 94.998 71.9484 97.8555C71.9484 100.713 74.2643 103.03 77.1212 103.03Z" fill="#E6E6E6" />
		<path d="M190.504 43.0669C193.361 43.0669 195.677 40.7504 195.677 37.8929C195.677 35.0354 193.361 32.7189 190.504 32.7189C187.647 32.7189 185.331 35.0354 185.331 37.8929C185.331 40.7504 187.647 43.0669 190.504 43.0669Z" fill="#E6E6E6" />
		<path d="M190.504 73.0482C193.361 73.0482 195.677 70.7318 195.677 67.8742C195.677 65.0167 193.361 62.7003 190.504 62.7003C187.647 62.7003 185.331 65.0167 185.331 67.8742C185.331 70.7318 187.647 73.0482 190.504 73.0482Z" fill="#E6E6E6" />
		<path d="M190.504 103.03C193.361 103.03 195.677 100.713 195.677 97.8555C195.677 94.998 193.361 92.6815 190.504 92.6815C187.647 92.6815 185.331 94.998 185.331 97.8555C185.331 100.713 187.647 103.03 190.504 103.03Z" fill="#E6E6E6" />
		<path d="M76.6412 99.9814L75.1343 98.0434L76.0106 97.3615L76.7243 98.2791L79.1346 95.7341L79.9409 96.4977L76.6412 99.9814Z" fill="white" />
		<path d="M189.197 36.2309L188.766 36.6617L191.66 39.5555L192.09 39.1248L189.197 36.2309Z" fill="white" />
		<path d="M191.812 36.2303L188.919 39.1242L189.349 39.555L192.243 36.6611L191.812 36.2303Z" fill="white" />
		<path d="M189.197 66.2122L188.766 66.6429L191.66 69.5368L192.09 69.106L189.197 66.2122Z" fill="white" />
		<path d="M191.812 66.2116L188.919 69.1055L189.349 69.5362L192.243 66.6424L191.812 66.2116Z" fill="white" />
		<path d="M189.197 96.1935L188.766 96.6243L191.66 99.5181L192.09 99.0874L189.197 96.1935Z" fill="white" />
		<path d="M191.812 96.1929L188.919 99.0868L189.349 99.5175L192.243 96.6237L191.812 96.1929Z" fill="white" />
		<path d="M78.1164 95.7829C78.5669 95.4848 78.9474 95.0925 79.2317 94.633C79.516 94.1735 79.6972 93.6579 79.763 93.1216C79.8287 92.5853 79.7774 92.0411 79.6125 91.5265C79.4476 91.012 79.1731 90.5394 78.8079 90.1412L73.842 84.727L69.0722 87.1425L72.7229 94.3546C72.961 94.8248 73.2958 95.2393 73.7053 95.5709C74.1149 95.9025 74.59 96.1437 75.0994 96.2786C75.6088 96.4135 76.1409 96.439 76.6609 96.3536C77.1809 96.2682 77.6769 96.0737 78.1164 95.7829Z" fill="#FFB8B8" />
		<path d="M13.9233 111.862C14.4598 111.8 14.9765 111.622 15.4376 111.34C15.8988 111.059 16.2934 110.681 16.5942 110.232C16.8951 109.783 17.095 109.274 17.1803 108.741C17.2656 108.207 17.2341 107.662 17.0881 107.141L15.1029 100.067H9.75653V108.151C9.75653 108.678 9.86802 109.199 10.0837 109.68C10.2993 110.161 10.6143 110.591 11.0078 110.941C11.4013 111.292 11.8645 111.555 12.367 111.714C12.8695 111.873 13.3999 111.923 13.9233 111.862Z" fill="#FFB8B8" />
		<path d="M44.8046 165.228L54.9035 163.643L50.7452 159.286H44.8046V165.228Z" fill="#FFB8B8" />
		<path d="M12.3305 165.624L22.8252 168.397C20.8923 164.386 19.702 160.837 20.4491 158.494L15.4987 157.9L12.3305 165.624Z" fill="#FFB8B8" />
		<path d="M14.5085 158.89L20.6471 160.078L37.4782 105.811L44.6066 159.88H51.1411L50.5469 83.4308H25.2013L14.5085 158.89Z" fill="#575A88" />
		<path d="M46.7379 167.633L56.7271 164.346C56.9921 164.259 57.2353 164.116 57.44 163.926C57.6447 163.737 57.8062 163.505 57.9135 163.248C58.0207 162.99 58.0713 162.712 58.0616 162.433C58.052 162.154 57.9825 161.881 57.8577 161.631C57.6864 161.289 57.4176 161.004 57.0851 160.814C56.7526 160.624 56.3713 160.536 55.9891 160.562L53.7232 160.715L52.8351 160.215C52.7416 160.162 52.6339 160.14 52.5272 160.151C52.4204 160.163 52.3199 160.207 52.2395 160.278C52.1591 160.349 52.1029 160.444 52.0786 160.548C52.0543 160.653 52.0633 160.763 52.1042 160.862L52.9231 162.851L44.6065 162.257L44.1962 165.54C44.1554 165.866 44.1978 166.197 44.3193 166.503C44.4408 166.808 44.6376 167.078 44.8912 167.286C45.1448 167.495 45.4471 167.636 45.77 167.697C46.0929 167.758 46.4258 167.736 46.7379 167.633Z" fill="#575A88" />
		<path d="M12.9757 169.144L23.8343 169.848C24.1224 169.867 24.4111 169.823 24.6809 169.72C24.9506 169.617 25.195 169.457 25.3975 169.252C25.5999 169.046 25.7557 168.799 25.8541 168.527C25.9526 168.256 25.9915 167.966 25.9681 167.679C25.936 167.283 25.7878 166.907 25.5421 166.595C25.2964 166.284 24.9643 166.053 24.5874 165.93L22.353 165.201L21.6935 164.378C21.6241 164.292 21.5293 164.229 21.4225 164.198C21.3156 164.168 21.202 164.172 21.0973 164.209C20.9926 164.246 20.9022 164.315 20.8385 164.406C20.7748 164.497 20.7411 164.606 20.742 164.717L20.7599 166.943L13.0057 163.16L11.3438 166.153C11.1788 166.45 11.0916 166.784 11.0903 167.124C11.0891 167.464 11.1738 167.799 11.3367 168.098C11.4995 168.396 11.7352 168.649 12.0217 168.831C12.3083 169.014 12.6365 169.122 12.9757 169.144Z" fill="#575A88" />
		<path d="M36.092 40.6507C40.1383 40.6507 43.4185 37.3699 43.4185 33.3227C43.4185 29.2755 40.1383 25.9946 36.092 25.9946C32.0457 25.9946 28.7655 29.2755 28.7655 33.3227C28.7655 37.3699 32.0457 40.6507 36.092 40.6507Z" fill="#FFB8B8" />
		<path d="M31.3398 46.7904H41.4385V37.0857H31.3398C32.1744 40.0829 32.0665 43.3485 31.3398 46.7904Z" fill="#FFB8B8" />
		<path d="M23.8152 84.421L51.537 84.8171L54.3092 55.5234C54.3092 53.6122 53.7107 51.749 52.5979 50.1954C51.485 48.6418 49.9136 47.4759 48.1043 46.8612L43.8145 45.404L41.4384 42.6312C38.4383 41.9828 35.1742 42.14 31.7357 42.8293L29.1615 46.5924L26.3895 47.4772C24.5057 48.0786 22.8685 49.2762 21.7245 50.8894C20.5806 52.5027 19.992 54.4442 20.0475 56.4213C22.1102 67.0777 23.7142 76.9818 23.8152 84.421Z" fill="#2441C9" />
		<path d="M8.7663 100.067L15.6968 100.86L23.6173 68.9727L24.4093 48.3749L24.1755 48.4881C22.3422 49.3753 20.7407 50.6774 19.4978 52.2911C18.2549 53.9048 17.4047 55.7858 17.0147 57.7851L8.7663 100.067Z" fill="#2441C9" />
		<path d="M69.3582 88.1841L74.7046 85.6094L59.0232 56.3418C56.7457 52.0913 53.0435 48.7795 48.5669 46.9885L51.5371 65.6058L69.3582 88.1841Z" fill="#2441C9" />
		<path d="M31.5638 39.9183C31.5638 39.9183 38.7481 39.4922 38.9036 38.2492C39.0591 37.0063 40.1081 34.171 41.3507 34.3266C42.5934 34.4821 46.0372 30.3387 45.2997 28.6684C44.5621 26.998 41.0809 20.8484 33.974 23.6828C26.867 26.5171 27.6814 33.6253 28.419 35.2957C29.1566 36.966 31.5638 39.9183 31.5638 39.9183Z" fill="#2F2E41" />
		<path d="M207.386 129.74C207.307 129.74 207.231 129.766 207.169 129.813C207.106 129.861 207.061 129.928 207.041 130.004L206.464 132.148C206.449 132.201 206.448 132.256 206.458 132.31C206.469 132.364 206.492 132.414 206.525 132.458C206.558 132.502 206.601 132.537 206.651 132.561C206.7 132.585 206.754 132.598 206.809 132.598H217.783C217.84 132.598 217.896 132.584 217.947 132.558C217.997 132.532 218.041 132.494 218.074 132.448C218.107 132.401 218.129 132.348 218.137 132.291C218.145 132.235 218.139 132.178 218.121 132.124L217.379 129.98C217.354 129.91 217.309 129.849 217.248 129.806C217.188 129.763 217.115 129.74 217.041 129.74H207.386Z" fill="#F50057" />
		<path d="M191.362 129.74C191.283 129.74 191.207 129.766 191.144 129.813C191.082 129.861 191.037 129.928 191.017 130.004L190.44 132.148C190.425 132.201 190.423 132.256 190.434 132.31C190.445 132.364 190.468 132.414 190.501 132.458C190.534 132.502 190.577 132.537 190.626 132.561C190.676 132.585 190.73 132.598 190.784 132.598H201.759C201.816 132.598 201.872 132.584 201.923 132.558C201.973 132.532 202.017 132.494 202.05 132.448C202.083 132.401 202.104 132.348 202.113 132.291C202.121 132.235 202.115 132.178 202.096 132.124L201.355 129.98C201.33 129.91 201.285 129.849 201.224 129.806C201.164 129.763 201.091 129.74 201.017 129.74H191.362Z" fill="#F50057" />
	</g>
	<defs>
		<clipPath id="clip0">
			<rect width="270" height="187.129" fill="white" />
		</clipPath>
	</defs>
</svg>
