<svg viewBox="0 0 5239 1573" fill="none" xmlns="http://www.w3.org/2000/svg">
<path d="M5239 1357.17L5064.37 1432.81C4889.73 1505.62 4540.47 1661.13 4191.2 1507.74C3841.93 1357.17 3492.67 904.783 3143.4 602.953C2794.13 303.95 2444.87 148.441 2095.6 113.097C1746.33 77.7544 1375.78 327.208 1026.52 329.329C677.25 327.208 349.267 77.7544 174.634 37.4633L6.10352e-05 -0.000473022H174.634C349.267 -0.000473022 698.534 -0.000473022 1047.8 -0.000473022C1397.07 -0.000473022 1746.33 -0.000473022 2095.6 -0.000473022C2444.87 -0.000473022 2794.13 -0.000473022 3143.4 -0.000473022C3492.67 -0.000473022 3841.93 -0.000473022 4191.2 -0.000473022C4540.47 -0.000473022 4889.73 -0.000473022 5064.37 -0.000473022H5239V1357.17Z" fill="url(#paint0_linear)"/>
<defs>
<linearGradient id="paint0_linear" x1="2619.5" y1="1573" x2="2619.5" y2="-0.000488281" gradientUnits="userSpaceOnUse">
<stop offset="0.234375" stop-color="#E91962"/>
<stop offset="1" stop-color="#2441C9"/>
</linearGradient>
</defs>
</svg>
