<svg width="270" height="163" viewBox="0 0 270 163" fill="none" xmlns="http://www.w3.org/2000/svg">
	<g>
		<path d="M270 111.664H0V112.322H270V111.664Z" fill="#3F3D56" />
		<path d="M195.239 158.148H15.2314C13.6306 158.148 12.0954 157.485 10.9634 156.303C9.83152 155.122 9.19562 153.52 9.19562 151.849C74.4484 143.935 138.475 143.935 201.275 151.849C201.275 152.676 201.119 153.496 200.816 154.26C200.512 155.024 200.068 155.718 199.507 156.303C198.947 156.888 198.281 157.352 197.549 157.669C196.817 157.985 196.032 158.148 195.239 158.148Z" fill="#2F2E41" />
		<path d="M201.275 152.22L9.19562 151.849L31.457 112.757L31.5635 112.572V26.4169C31.5634 25.3712 31.7607 24.3357 32.1441 23.3695C32.5275 22.4034 33.0895 21.5255 33.798 20.7861C34.5066 20.0466 35.3477 19.4601 36.2734 19.0599C37.1992 18.6598 38.1914 18.4539 39.1934 18.454H170.212C171.214 18.4539 172.206 18.6598 173.132 19.0599C174.058 19.4601 174.899 20.0466 175.607 20.7861C176.316 21.5255 176.878 22.4034 177.261 23.3695C177.645 24.3357 177.842 25.3712 177.842 26.4169V113.165L201.275 152.22Z" fill="#3F3D56" />
		<path d="M39.0203 24.0121C38.3614 24.0129 37.7297 24.2864 37.2637 24.7726C36.7978 25.2589 36.5357 25.9182 36.535 26.6059V105.161C36.5357 105.849 36.7978 106.508 37.2638 106.994C37.7297 107.48 38.3614 107.754 39.0203 107.755H171.452C172.111 107.754 172.743 107.48 173.209 106.994C173.675 106.508 173.937 105.849 173.937 105.161V26.6059C173.937 25.9182 173.675 25.2589 173.209 24.7727C172.743 24.2864 172.111 24.0129 171.452 24.0121H39.0203Z" fill="#E91962" />
		<path d="M39.5751 118.13C39.3715 118.13 39.1722 118.191 39.0008 118.306C38.8293 118.42 38.6928 118.584 38.6074 118.777L31.748 134.34C31.6733 134.509 31.6407 134.695 31.653 134.881C31.6654 135.067 31.7224 135.247 31.8187 135.404C31.9151 135.561 32.0477 135.69 32.2044 135.779C32.3612 135.869 32.5369 135.916 32.7155 135.916H176.965C177.147 135.916 177.325 135.867 177.484 135.775C177.643 135.683 177.776 135.55 177.871 135.389C177.967 135.227 178.021 135.043 178.029 134.854C178.037 134.665 177.999 134.476 177.918 134.307L170.462 118.744C170.374 118.559 170.238 118.404 170.07 118.295C169.901 118.186 169.707 118.129 169.509 118.13H39.5751Z" fill="#2F2E41" />
		<path d="M104.703 22.7151C105.586 22.7151 106.301 21.9686 106.301 21.0477C106.301 20.1268 105.586 19.3802 104.703 19.3802C103.821 19.3802 103.106 20.1268 103.106 21.0477C103.106 21.9686 103.821 22.7151 104.703 22.7151Z" fill="#E91962" />
		<path d="M90.5247 138.88C90.2905 138.88 90.063 138.961 89.8772 139.11C89.6913 139.258 89.5575 139.467 89.4963 139.703L87.7757 146.372C87.7332 146.537 87.7275 146.71 87.7593 146.877C87.791 147.045 87.8592 147.202 87.9586 147.338C88.0581 147.473 88.1861 147.583 88.3327 147.658C88.4793 147.734 88.6406 147.773 88.8041 147.773H121.526C121.696 147.773 121.863 147.731 122.014 147.65C122.165 147.568 122.295 147.451 122.394 147.306C122.492 147.162 122.556 146.995 122.58 146.82C122.604 146.644 122.588 146.465 122.532 146.298L120.32 139.628C120.248 139.41 120.112 139.22 119.932 139.086C119.751 138.952 119.535 138.88 119.314 138.88H90.5247Z" fill="#2F2E41" />
		<path d="M177.842 111.275V112.757H31.4572L31.5673 112.572V111.275H177.842Z" fill="#2F2E41" />
		<path d="M55.289 40.3226C54.7708 40.331 54.2769 40.5535 53.9156 40.9414C53.5543 41.3293 53.3552 41.8508 53.3618 42.3917V89.2913C53.3552 89.8321 53.5543 90.3537 53.9156 90.7416C54.2769 91.1295 54.7708 91.352 55.289 91.3604H155.183C155.701 91.352 156.195 91.1295 156.557 90.7416C156.918 90.3537 157.117 89.8321 157.11 89.2913V42.3917C157.117 41.8508 156.918 41.3293 156.557 40.9414C156.195 40.5535 155.701 40.331 155.183 40.3226H55.289Z" fill="#E6E6E6" />
		<path d="M112.675 91.4441H149.039C149.271 91.4441 149.497 91.3724 149.689 91.2382C149.882 91.1039 150.032 90.9132 150.121 90.6899C150.209 90.4667 150.232 90.2211 150.187 89.9841C150.142 89.7471 150.031 89.5295 149.867 89.3586L126.594 65.0695C126.374 64.8407 126.076 64.7122 125.766 64.7122C125.456 64.7122 125.158 64.8407 124.938 65.0695L119.151 71.1096C118.923 71.3475 118.652 71.5363 118.354 71.6651C118.056 71.7939 117.737 71.8602 117.415 71.8602C117.092 71.8602 116.773 71.7939 116.475 71.6651C116.177 71.5363 115.907 71.3475 115.679 71.1096L97.5514 52.1912C97.3317 51.9625 97.034 51.834 96.7236 51.834C96.4133 51.834 96.1156 51.9625 95.8959 52.1912L60.4435 89.191C60.2798 89.3619 60.1684 89.5795 60.1232 89.8165C60.0781 90.0535 60.1013 90.2991 60.1899 90.5223C60.2785 90.7456 60.4285 90.9363 60.621 91.0706C60.8135 91.2048 61.0398 91.2765 61.2713 91.2765H112.722L112.675 91.4441Z" fill="#E91962" />
		<path d="M69.4217 56.0781C71.9052 56.0781 73.9185 53.977 73.9185 51.385C73.9185 48.7931 71.9052 46.6919 69.4217 46.6919C66.9381 46.6919 64.9248 48.7931 64.9248 51.385C64.9248 53.977 66.9381 56.0781 69.4217 56.0781Z" fill="#E91962" />
		<path d="M57.6863 57.3001C57.6011 57.3001 57.5194 57.2647 57.4592 57.2019C57.3989 57.139 57.3651 57.0538 57.3651 56.9648V34.5049C57.3651 34.416 57.3989 34.3307 57.4592 34.2679C57.5194 34.205 57.6011 34.1697 57.6863 34.1697H82.4189C82.4612 34.1695 82.503 34.1781 82.5421 34.1949C82.5812 34.2117 82.6167 34.2364 82.6467 34.2675C82.6766 34.2986 82.7003 34.3356 82.7166 34.3764C82.7328 34.4171 82.7411 34.4608 82.7411 34.5049C82.7411 34.549 82.7328 34.5927 82.7166 34.6334C82.7003 34.6742 82.6766 34.7112 82.6467 34.7423C82.6167 34.7735 82.5812 34.7981 82.5421 34.8149C82.503 34.8317 82.4612 34.8403 82.4189 34.8401H58.0075V56.9649C58.0075 57.0538 57.9736 57.139 57.9134 57.2019C57.8532 57.2647 57.7715 57.3001 57.6863 57.3001Z" fill="#3F3D56" />
		<path d="M152.762 57.6353C152.72 57.6353 152.678 57.6266 152.639 57.6098C152.6 57.5929 152.565 57.5682 152.535 57.5371C152.505 57.506 152.482 57.469 152.465 57.4283C152.449 57.3877 152.441 57.3441 152.441 57.3001V35.1753H128.03C127.944 35.1753 127.863 35.14 127.802 35.0771C127.742 35.0143 127.708 34.929 127.708 34.8401C127.708 34.7512 127.742 34.6659 127.802 34.6031C127.863 34.5402 127.944 34.5049 128.03 34.5049H152.762C152.804 34.5049 152.846 34.5135 152.885 34.5304C152.924 34.5472 152.96 34.5719 152.989 34.603C153.019 34.6342 153.043 34.6711 153.059 34.7118C153.075 34.7525 153.083 34.7961 153.083 34.8401V57.3C153.083 57.3441 153.075 57.3877 153.059 57.4283C153.043 57.469 153.019 57.506 152.989 57.5371C152.96 57.5682 152.924 57.5929 152.885 57.6098C152.846 57.6266 152.804 57.6353 152.762 57.6353Z" fill="#3F3D56" />
		<path d="M82.4189 97.1915H57.6863C57.6441 97.1915 57.6023 97.1829 57.5634 97.166C57.5244 97.1492 57.489 97.1245 57.4591 97.0934C57.4293 97.0622 57.4057 97.0253 57.3895 96.9846C57.3734 96.9439 57.3651 96.9003 57.3651 96.8563V74.3963C57.365 74.3522 57.3732 74.3085 57.3892 74.2677C57.4053 74.2269 57.429 74.1899 57.4588 74.1586C57.4886 74.1274 57.5241 74.1026 57.5631 74.0857C57.6022 74.0688 57.644 74.0601 57.6863 74.0601C57.7286 74.0601 57.7704 74.0688 57.8094 74.0857C57.8485 74.1026 57.8839 74.1274 57.9138 74.1586C57.9436 74.1899 57.9673 74.2269 57.9833 74.2677C57.9994 74.3085 58.0076 74.3522 58.0075 74.3963V96.5211H82.4189C82.4612 96.5209 82.503 96.5295 82.5421 96.5463C82.5812 96.5631 82.6167 96.5877 82.6467 96.6189C82.6766 96.65 82.7003 96.687 82.7166 96.7278C82.7328 96.7685 82.7411 96.8122 82.7411 96.8563C82.7411 96.9004 82.7328 96.9441 82.7166 96.9848C82.7003 97.0256 82.6766 97.0626 82.6467 97.0937C82.6167 97.1248 82.5812 97.1495 82.5421 97.1663C82.503 97.1831 82.4612 97.1916 82.4189 97.1915Z" fill="#3F3D56" />
		<path d="M152.762 97.5268H128.03C127.944 97.5268 127.863 97.4914 127.802 97.4286C127.742 97.3657 127.708 97.2804 127.708 97.1915C127.708 97.1026 127.742 97.0174 127.802 96.9545C127.863 96.8916 127.944 96.8563 128.03 96.8563H152.441V74.7316C152.441 74.6427 152.475 74.5574 152.535 74.4946C152.595 74.4317 152.677 74.3964 152.762 74.3964C152.847 74.3964 152.929 74.4317 152.989 74.4946C153.05 74.5574 153.083 74.6427 153.083 74.7316V97.1915C153.083 97.2356 153.075 97.2792 153.059 97.3198C153.043 97.3605 153.019 97.3975 152.989 97.4286C152.96 97.4598 152.924 97.4845 152.885 97.5013C152.846 97.5181 152.804 97.5268 152.762 97.5268Z" fill="#3F3D56" />
		<path d="M256.624 92.488C257.127 92.5393 257.635 92.4801 258.115 92.3142C258.595 92.1484 259.036 91.8796 259.411 91.5251C259.785 91.1706 260.084 90.7383 260.289 90.2559C260.494 89.7735 260.6 89.2518 260.6 88.7242V80.666L255.55 80.0336L253.487 87.7021C253.344 88.2344 253.314 88.7929 253.401 89.3384C253.487 89.8839 253.686 90.403 253.985 90.8593C254.284 91.3156 254.676 91.6979 255.131 91.9793C255.587 92.2607 256.097 92.4344 256.624 92.488Z" fill="#FFB8B8" />
		<path d="M212.948 96.235C213.451 96.1831 213.938 96.0218 214.378 95.7617C214.818 95.5015 215.201 95.1482 215.502 94.7244C215.803 94.3007 216.016 93.8158 216.127 93.3011C216.237 92.7864 216.244 92.2531 216.145 91.7356L214.643 83.8315L209.572 84.237L208.979 92.1778C208.937 92.729 209.013 93.2829 209.199 93.8004C209.385 94.318 209.677 94.7867 210.056 95.1735C210.434 95.5603 210.889 95.8558 211.389 96.0392C211.889 96.2226 212.421 96.2894 212.948 96.235Z" fill="#FFB8B8" />
		<path d="M227.271 155.924L233.172 156.187C231.91 131.294 232.303 110.237 235.754 96.2658C240.049 112.217 241.526 133.149 241.64 156.492L248.076 155.924C250.826 128.283 252.221 102.726 249.287 83.8282C240.082 78.2466 229.888 78.2296 218.585 84.4606C218.331 105.631 221.81 129.944 227.271 155.924Z" fill="#2F2E41" />
		<path d="M228.348 154.643L225.844 155.514C225.844 155.514 220.558 154.062 221.949 157.837C223.34 161.612 227.236 161.031 227.236 161.031C227.236 161.031 231.965 164.806 233.913 161.902L232.8 155.805L228.348 154.643Z" fill="#2F2E41" />
		<path d="M245.988 154.643L248.492 155.514C248.492 155.514 253.778 154.062 252.387 157.837C250.996 161.612 247.101 161.031 247.101 161.031C247.101 161.031 242.371 164.806 240.424 161.902L241.537 155.805L245.988 154.643Z" fill="#2F2E41" />
		<path d="M225.857 19.532C230.431 19.532 234.139 15.6624 234.139 10.8889C234.139 6.11549 230.431 2.24585 225.857 2.24585C221.283 2.24585 217.575 6.11549 217.575 10.8889C217.575 15.6624 221.283 19.532 225.857 19.532Z" fill="#FFB8B8" />
		<path d="M224.847 28.1751L237.371 24.5914C234.202 20.537 233.053 15.9529 233.735 10.8889H224.847V28.1751Z" fill="#FFB8B8" />
		<path d="M217.777 86.3579C228.967 82.052 239.927 81.2505 250.499 86.3579C247.443 65.3799 246.475 46.4509 249.744 33.286C250.065 32.0116 249.94 30.6597 249.393 29.4721C248.846 28.2845 247.912 27.3389 246.758 26.8043L235.552 21.6401L224.847 23.3266L215.809 30.1721C214.856 30.8936 214.16 31.926 213.831 33.1061C213.502 34.2863 213.56 35.5472 213.994 36.6898C218.755 49.2088 219.629 66.2124 217.777 86.3579Z" fill="#E91962" />
		<path d="M255.348 80.666L261.206 81.2984L255.233 37.313C254.905 34.8918 253.927 32.6167 252.414 30.7499C250.9 28.8831 248.912 27.5005 246.679 26.7614L245.854 26.4886L247.066 50.099L255.348 80.666Z" fill="#E91962" />
		<path d="M214.998 84.8445L209.311 86.438L208.527 42.0207C208.484 39.5757 209.104 37.1677 210.314 35.0741C211.525 32.9805 213.278 31.2865 215.371 30.1873L216.144 29.7816L218.533 53.294L214.998 84.8445Z" fill="#E91962" />
		<path d="M234.011 17.4246C234.011 17.4246 240.801 8.83379 234.487 2.55296C230.107 -1.80432 223.895 0.36739 220.501 2.10628C219.584 2.56116 218.785 3.24217 218.176 4.09062C217.566 4.93906 217.164 5.92949 217.003 6.97651C216.776 8.6027 217.15 10.062 219.547 9.39433C224.341 8.05902 222.903 12.4791 222.903 12.4791C222.903 12.4791 226.312 12.4228 226.26 15.5639C226.207 18.705 234.011 17.4246 234.011 17.4246Z" fill="#2F2E41" />
	</g>
	<defs>
		<clipPath id="clip0">
			<rect width="270" height="163" fill="white" />
		</clipPath>
	</defs>
</svg>
