<svg width="517" height="361" viewBox="0 0 517 361" fill="none" xmlns="http://www.w3.org/2000/svg">
<g clip-path="url(#clip0)">
<path d="M103.009 361C159.899 361 206.018 357.485 206.018 353.148C206.018 348.812 159.899 345.297 103.009 345.297C46.1186 345.297 0 348.812 0 353.148C0 357.485 46.1186 361 103.009 361Z" fill="#E91962"/>
<path d="M78.7383 80.0995C96.6649 72.4473 118.993 77.2957 140.798 80.6607C141.001 76.5856 143.461 71.6261 140.884 68.7832C137.754 65.3292 138.043 61.7001 139.926 58.0501C144.743 48.7165 137.842 38.785 130.874 30.527C129.304 28.6699 127.319 27.2108 125.081 26.2681C122.843 25.3254 120.415 24.9258 117.995 25.1017L105.087 26.027C101.947 26.2521 98.9493 27.4345 96.4964 29.4161C94.0435 31.3976 92.2521 34.0836 91.3619 37.1149C88.28 41.3215 86.6304 45.5165 87.669 49.6896C83.0527 52.8557 82.2771 56.6775 84.3515 60.9858C86.1105 63.6985 86.0918 66.3391 84.2715 68.9065C81.8809 72.1799 80.05 75.8298 78.8537 79.7066L78.7383 80.0995Z" fill="#2F2E41"/>
<path d="M504.749 312.079H139.382C136.133 312.079 133.017 310.783 130.72 308.477C128.422 306.172 127.131 303.044 127.131 299.784C259.577 284.335 389.533 284.335 517 299.784C517 303.044 515.71 306.172 513.412 308.477C511.115 310.783 507.998 312.079 504.749 312.079Z" fill="#2F2E41"/>
<path d="M517 300.507L127.131 299.784L172.316 223.482L172.532 223.12V54.9592C172.532 52.918 172.932 50.8969 173.71 49.0111C174.489 47.1253 175.629 45.4119 177.068 43.9686C178.506 42.5253 180.213 41.3805 182.092 40.5994C183.971 39.8184 185.985 39.4165 188.019 39.4167H453.951C455.985 39.4165 457.999 39.8184 459.878 40.5994C461.757 41.3805 463.464 42.5253 464.902 43.9686C466.34 45.4119 467.481 47.1253 468.259 49.0111C469.037 50.8969 469.438 52.918 469.438 54.9592V224.277L517 300.507Z" fill="#3F3D56"/>
<path d="M187.665 50.2653C186.328 50.2668 185.045 50.8007 184.1 51.7498C183.154 52.6989 182.622 53.9857 182.621 55.328V208.655C182.622 209.997 183.154 211.284 184.1 212.233C185.046 213.182 186.328 213.716 187.665 213.718H456.466C457.803 213.716 459.085 213.182 460.031 212.233C460.977 211.284 461.509 209.997 461.51 208.655V55.328C461.509 53.9857 460.977 52.6989 460.031 51.7498C459.085 50.8007 457.803 50.2668 456.466 50.2653H187.665Z" fill="#E91962"/>
<path d="M188.791 233.969C188.378 233.969 187.974 234.089 187.626 234.312C187.278 234.536 187.001 234.855 186.827 235.231L172.904 265.608C172.753 265.938 172.687 266.302 172.712 266.665C172.737 267.028 172.852 267.379 173.048 267.685C173.244 267.991 173.513 268.243 173.831 268.418C174.149 268.593 174.506 268.684 174.868 268.684H467.656C468.024 268.684 468.387 268.59 468.709 268.41C469.031 268.229 469.301 267.97 469.495 267.655C469.689 267.34 469.799 266.981 469.815 266.612C469.832 266.242 469.754 265.875 469.589 265.544L454.456 235.168C454.277 234.807 454.001 234.503 453.66 234.291C453.318 234.079 452.924 233.967 452.522 233.969H188.791Z" fill="#2F2E41"/>
<path d="M320.985 47.7339C322.776 47.7339 324.227 46.2768 324.227 44.4793C324.227 42.6819 322.776 41.2248 320.985 41.2248C319.194 41.2248 317.742 42.6819 317.742 44.4793C317.742 46.2768 319.194 47.7339 320.985 47.7339Z" fill="#E91962"/>
<path d="M292.206 274.47C291.731 274.471 291.269 274.628 290.892 274.918C290.514 275.209 290.243 275.615 290.119 276.076L286.626 289.094C286.54 289.416 286.528 289.753 286.593 290.079C286.657 290.406 286.796 290.714 286.998 290.978C287.199 291.242 287.459 291.457 287.757 291.604C288.054 291.751 288.382 291.828 288.714 291.828H355.131C355.475 291.828 355.815 291.745 356.121 291.587C356.428 291.428 356.692 291.199 356.892 290.917C357.092 290.635 357.221 290.309 357.27 289.967C357.319 289.624 357.286 289.275 357.173 288.948L352.683 275.93C352.536 275.504 352.26 275.134 351.894 274.873C351.528 274.611 351.09 274.47 350.64 274.47H292.206Z" fill="#2F2E41"/>
<path d="M469.437 220.589V223.481H172.315L172.539 223.12V220.589H469.437Z" fill="#2F2E41"/>
<path d="M461.15 101.254C489.01 101.254 511.595 78.5874 511.595 50.6269C511.595 22.6664 489.01 0 461.15 0C433.29 0 410.705 22.6664 410.705 50.6269C410.705 78.5874 433.29 101.254 461.15 101.254Z" fill="#2441C9"/>
<path d="M482.049 72.6858H440.251C439.487 72.685 438.754 72.38 438.214 71.8376C437.673 71.2953 437.369 70.5599 437.369 69.7928V44.4794C437.369 43.7124 437.673 42.977 438.214 42.4346C438.754 41.8923 439.487 41.5872 440.251 41.5864H482.049C482.813 41.5872 483.546 41.8923 484.086 42.4346C484.626 42.977 484.93 43.7124 484.931 44.4794V69.7928C484.93 70.5599 484.626 71.2953 484.086 71.8376C483.546 72.38 482.813 72.685 482.049 72.6858ZM440.251 44.4794V69.7928H482.051L482.049 44.4794L440.251 44.4794Z" fill="white"/>
<path d="M474.122 44.4793H448.179V32.9075C448.179 24.5259 453.634 18.4426 461.15 18.4426C468.666 18.4426 474.122 24.5259 474.122 32.9075L474.122 44.4793ZM451.061 41.5863H471.239V32.9075C471.239 26.0942 467.091 21.3356 461.15 21.3356C455.21 21.3356 451.061 26.0942 451.061 32.9075L451.061 41.5863Z" fill="white"/>
<path d="M461.15 59.3058C462.742 59.3058 464.033 58.0105 464.033 56.4128C464.033 54.8151 462.742 53.5198 461.15 53.5198C459.558 53.5198 458.268 54.8151 458.268 56.4128C458.268 58.0105 459.558 59.3058 461.15 59.3058Z" fill="white"/>
<path d="M425.935 161.711H218.196C217.176 161.71 216.198 161.303 215.477 160.579C214.756 159.855 214.35 158.874 214.349 157.85V106.133C214.35 105.11 214.756 104.128 215.477 103.404C216.198 102.681 217.176 102.274 218.196 102.272H425.935C426.955 102.274 427.933 102.681 428.654 103.404C429.375 104.128 429.781 105.11 429.782 106.133V157.85C429.781 158.874 429.375 159.855 428.654 160.579C427.933 161.302 426.955 161.71 425.935 161.711ZM218.196 103.817C217.584 103.817 216.997 104.062 216.565 104.496C216.132 104.93 215.889 105.519 215.888 106.133V157.85C215.889 158.464 216.132 159.053 216.565 159.487C216.997 159.922 217.584 160.166 218.196 160.167H425.935C426.547 160.166 427.134 159.922 427.566 159.487C427.999 159.053 428.242 158.464 428.243 157.85V106.133C428.242 105.519 427.999 104.93 427.566 104.496C427.134 104.062 426.547 103.817 425.935 103.817L218.196 103.817Z" fill="#E6E6E6"/>
<path d="M250.474 145.734C259.129 145.734 266.145 138.693 266.145 130.007C266.145 121.321 259.129 114.28 250.474 114.28C241.82 114.28 234.804 121.321 234.804 130.007C234.804 138.693 241.82 145.734 250.474 145.734Z" fill="#E6E6E6"/>
<path d="M286.666 119.522C286.323 119.522 285.983 119.589 285.665 119.721C285.348 119.852 285.06 120.045 284.817 120.289C284.574 120.532 284.381 120.821 284.249 121.14C284.118 121.458 284.05 121.799 284.05 122.144C284.05 122.488 284.118 122.829 284.249 123.148C284.381 123.466 284.574 123.755 284.817 123.999C285.06 124.242 285.348 124.435 285.665 124.567C285.983 124.698 286.323 124.765 286.666 124.765H409.793C410.486 124.765 411.15 124.489 411.64 123.997C412.129 123.506 412.405 122.839 412.405 122.144C412.405 121.448 412.129 120.782 411.64 120.29C411.15 119.799 410.486 119.522 409.793 119.522H286.666Z" fill="#E6E6E6"/>
<path d="M286.666 135.25C285.974 135.25 285.309 135.526 284.82 136.017C284.33 136.509 284.055 137.176 284.055 137.871C284.055 138.566 284.33 139.233 284.82 139.724C285.309 140.216 285.974 140.492 286.666 140.492H339.648C340.341 140.492 341.005 140.216 341.495 139.724C341.985 139.233 342.26 138.566 342.26 137.871C342.26 137.176 341.985 136.509 341.495 136.017C341.005 135.526 340.341 135.25 339.648 135.25H286.666Z" fill="#E6E6E6"/>
<path d="M171.804 136.31L133.402 156.8L132.916 139.725C145.45 137.625 157.375 133.969 168.402 128.016L172.418 118.058C172.856 116.973 173.567 116.02 174.482 115.295C175.397 114.569 176.485 114.094 177.638 113.917C178.791 113.741 179.97 113.868 181.059 114.287C182.148 114.705 183.11 115.401 183.851 116.306C184.934 117.629 185.476 119.316 185.366 121.026C185.256 122.735 184.502 124.338 183.259 125.511L171.804 136.31Z" fill="#FFB8B8"/>
<path d="M77.9728 254.611C77.6926 253.58 77.6332 252.501 77.7983 251.445C77.9634 250.389 78.3493 249.38 78.9307 248.485L87.3665 235.492C89.3618 232.419 92.4234 230.199 95.9573 229.263C99.4912 228.327 103.245 228.743 106.492 230.428C102.946 236.484 103.441 241.798 107.716 246.415C101.079 249.667 94.9444 253.864 89.503 258.876C88.5096 259.556 87.3688 259.987 86.1756 260.135C84.9823 260.282 83.7712 260.142 82.6432 259.724C81.5151 259.307 80.5027 258.625 79.6903 257.736C78.8779 256.846 78.2891 255.775 77.9728 254.611Z" fill="#2F2E41"/>
<path d="M173.553 237.623C172.277 239.758 170.475 241.528 168.321 242.763C166.166 243.998 163.732 244.657 161.251 244.675L105.208 245.102L102.778 230.954L127.569 223.636L106.667 207.537L129.513 180.705L171.01 219.521C173.436 221.79 175.012 224.825 175.475 228.12C175.937 231.415 175.259 234.769 173.553 237.623Z" fill="#2F2E41"/>
<path d="M96.4585 334.379H83.3337C71.5496 253.312 59.5545 172.019 95.0002 141.676L136.805 148.506L131.458 184.12L108.125 210.952L96.4585 334.379Z" fill="#2F2E41"/>
<path d="M107.996 352.743C106.968 353.024 105.893 353.084 104.841 352.918C103.789 352.752 102.784 352.365 101.891 351.782L87.6405 349.859C84.5783 347.857 82.3663 344.785 81.4338 341.238C80.5012 337.691 80.9146 333.924 82.5937 330.666C88.6287 334.223 93.9228 333.727 98.5233 329.436C101.774 336.023 107.13 335.621 112.245 341.171C112.922 342.168 113.352 343.313 113.499 344.51C113.646 345.708 113.506 346.923 113.09 348.055C112.675 349.187 111.995 350.204 111.109 351.019C110.223 351.834 109.156 352.425 107.996 352.743Z" fill="#2F2E41"/>
<path d="M127.569 87.5244L103.264 81.6702C107.3 73.3776 107.633 64.1504 105.694 54.3503L122.222 53.8625C122.74 66.0491 124.306 77.4346 127.569 87.5244Z" fill="#FFB8B8"/>
<path d="M134.249 163.195C116.555 175.295 104.054 163.609 94.5138 145.579C95.8394 134.546 93.693 121.343 89.7175 106.997C87.9495 100.67 88.6096 93.9067 91.5674 88.0436C94.5252 82.1806 99.5659 77.6435 105.694 75.3281L126.597 84.1095C144.345 98.6288 147.839 114.356 141.18 130.944L134.249 163.195Z" fill="#2441C9"/>
<path d="M83.3336 99.7208L63.8895 109.966L98.4028 130.456L103.205 142.344C103.526 143.137 103.682 143.988 103.664 144.844C103.646 145.7 103.455 146.544 103.102 147.323C102.749 148.102 102.241 148.801 101.61 149.378C100.979 149.954 100.237 150.395 99.4308 150.674C98.5139 150.991 97.5364 151.091 96.5746 150.966C95.6129 150.841 94.6931 150.494 93.8872 149.952C93.0814 149.411 92.4114 148.689 91.9297 147.845C91.448 147 91.1677 146.055 91.1108 145.083L90.6251 136.798L46.7592 122.27C45.2812 121.78 43.9336 120.96 42.8185 119.87C41.7033 118.781 40.8498 117.451 40.3226 115.981C39.5542 113.839 39.5151 111.501 40.2114 109.334C40.9077 107.168 42.3002 105.294 44.1709 104.006L79.4448 79.7188L83.3336 99.7208Z" fill="#FFB8B8"/>
<path d="M102.778 101.672C94.6684 98.1056 87.2944 101.98 77.9866 105.087L76.5283 79.231C85.7705 74.2873 94.5823 72.9544 102.778 76.7917L102.778 101.672Z" fill="#2441C9"/>
<path d="M112.478 66.67C121.049 66.67 127.996 59.6974 127.996 51.0962C127.996 42.495 121.049 35.5224 112.478 35.5224C103.908 35.5224 96.9604 42.495 96.9604 51.0962C96.9604 59.6974 103.908 66.67 112.478 66.67Z" fill="#FFB8B8"/>
<path d="M131.043 49.1312C115.679 50.6414 103.971 48.1196 96.4893 40.9393V35.1567H129.739L131.043 49.1312Z" fill="#2F2E41"/>
</g>
<defs>
<clipPath id="clip0">
<rect width="517" height="361" fill="white"/>
</clipPath>
</defs>
</svg>
