<svg viewBox="0 0 30 27" xmlns="http://www.w3.org/2000/svg">
	<path d="M22.3199 3.13314H24.5764C26.0688 3.13314 27.4251 3.74185 28.4075 4.72183C29.3898 5.70181 30 7.05522 30 8.54367V20.7183C30 22.2072 29.39 23.5602 28.4076 24.5402C27.4253 25.5203 26.0688 26.129 24.5764 26.129H5.42362C3.93119 26.129 2.57494 25.5203 1.59262 24.5402C0.610166 23.5602 0 22.2072 0 20.7183V8.54367C0 7.0548 0.610166 5.70167 1.59262 4.72169C2.57494 3.74157 3.93119 3.13314 5.42362 3.13314H7.68018C7.89342 2.44386 8.31007 1.83747 8.82251 1.34728C9.69384 0.513268 10.8899 0 11.816 0H18.1839C19.1099 0 20.3062 0.513268 21.1774 1.34728C21.6897 1.83747 22.1063 2.44386 22.3198 3.13314H22.3199ZM15 8.0367C16.8249 8.0367 18.4779 8.775 19.674 9.96826C20.8702 11.1616 21.6103 12.8105 21.6103 14.6312C21.6103 16.4517 20.8702 18.1007 19.674 19.2941C18.4776 20.4873 16.8252 21.2256 15 21.2256C13.1748 21.2256 11.5224 20.4873 10.326 19.2941C9.12991 18.1005 8.38985 16.4519 8.38985 14.6312C8.38985 12.8104 9.12991 11.1618 10.326 9.96826C11.5221 8.775 13.1751 8.0367 15 8.0367ZM18.2361 11.4028C17.4082 10.5768 16.264 10.066 15 10.066C13.7362 10.066 12.5918 10.5768 11.7638 11.4028C10.9362 12.2287 10.4239 13.3704 10.4239 14.6312C10.4239 15.8919 10.9362 17.0337 11.7638 17.8595C12.5918 18.6854 13.7362 19.1964 15 19.1964C16.2637 19.1964 17.4082 18.6854 18.2361 17.8595C19.0641 17.0337 19.5761 15.8921 19.5761 14.6312C19.5761 13.3702 19.0641 12.2287 18.2361 11.4028ZM24.5764 5.16233H21.4575C20.896 5.16233 20.4406 4.70803 20.4406 4.14779C20.4406 3.64695 20.1588 3.17628 19.7711 2.80557C19.2693 2.32507 18.6372 2.02932 18.184 2.02932H11.8161C11.363 2.02932 10.7309 2.32507 10.229 2.80557C9.84136 3.17642 9.55953 3.64695 9.55953 4.14779C9.55953 4.70803 9.1042 5.16233 8.54261 5.16233H5.42376C4.49247 5.16233 3.64511 5.54312 3.03058 6.15621C2.41603 6.76944 2.03416 7.61477 2.03416 8.54381V20.7185C2.03416 21.6472 2.41603 22.4929 3.03058 23.1059C3.64525 23.719 4.49261 24.1 5.42376 24.1H24.5765C25.5078 24.1 26.3554 23.719 26.9698 23.1059C27.5845 22.4927 27.9661 21.6475 27.9661 20.7185V8.54381C27.9661 7.61504 27.5844 6.76944 26.9697 6.15649C26.355 5.54326 25.5076 5.16233 24.5765 5.16233H24.5764Z" />
</svg>
