<svg viewBox="0 0 222 75" xmlns="http://www.w3.org/2000/svg">
	<path d="M63.9815 8.98123H70.45C74.7283 8.98123 78.6162 10.7261 81.4325 13.5353C84.2485 16.3444 85.9977 20.224 85.9977 24.4907V59.3898C85.9977 63.6576 84.2489 67.5362 81.4329 70.3453C78.617 73.1548 74.7283 74.8997 70.45 74.8997H15.5453C11.267 74.8997 7.37908 73.1548 4.5631 70.3453C1.74673 67.5362 -0.00241089 63.6576 -0.00241089 59.3898V24.4907C-0.00241089 20.2228 1.74673 16.344 4.5631 13.5349C7.37908 10.7253 11.267 8.98123 15.5453 8.98123H22.0141C22.6254 7.00541 23.8198 5.26717 25.2888 3.86202C27.7866 1.4713 31.2154 0 33.8701 0H52.1247C54.7794 0 58.2087 1.4713 60.7061 3.86202C62.1747 5.26717 63.369 7.00541 63.9811 8.98123H63.9815ZM42.9976 23.0374C48.229 23.0374 52.9675 25.1538 56.3964 28.5743C59.8256 31.9952 61.9471 36.7218 61.9471 41.9408C61.9471 47.1594 59.8256 51.8861 56.3964 55.307C52.9667 58.7276 48.2298 60.8439 42.9976 60.8439C37.7655 60.8439 33.0285 58.7276 29.5989 55.307C26.17 51.8857 24.0485 47.1598 24.0485 41.9408C24.0485 36.7214 26.17 31.9956 29.5989 28.5743C33.0277 25.1538 37.7663 23.0374 42.9976 23.0374ZM52.2746 32.6864C49.9012 30.3188 46.6211 28.8546 42.9976 28.8546C39.3746 28.8546 36.094 30.3188 33.7206 32.6864C31.348 35.0541 29.8794 38.3266 29.8794 41.9408C29.8794 45.5547 31.348 48.8277 33.7206 51.1949C36.094 53.5622 39.3746 55.0272 42.9976 55.0272C46.6203 55.0272 49.9012 53.5622 52.2746 51.1949C54.648 48.8277 56.1158 45.5551 56.1158 41.9408C56.1158 38.3262 54.648 35.0541 52.2746 32.6864ZM70.45 14.798H61.5092C59.8994 14.798 58.594 13.4957 58.594 11.8898C58.594 10.4541 57.7861 9.10492 56.6749 8.04225C55.2362 6.66488 53.4242 5.8171 52.1251 5.8171H33.8705C32.5714 5.8171 30.7595 6.66488 29.3207 8.04225C28.2095 9.1053 27.4016 10.4541 27.4016 11.8898C27.4016 13.4957 26.0963 14.798 24.4864 14.798H15.5457C12.876 14.798 10.4469 15.8895 8.68525 17.647C6.92355 19.4048 5.82886 21.828 5.82886 24.4911V59.3902C5.82886 62.0525 6.92355 64.4766 8.68525 66.2339C10.4473 67.9913 12.8764 69.0834 15.5457 69.0834H70.4504C73.12 69.0834 75.5499 67.9913 77.3112 66.2339C79.0733 64.4762 80.1672 62.0533 80.1672 59.3902V24.4911C80.1672 21.8288 79.0729 19.4048 77.3108 17.6478C75.5487 15.8899 73.1196 14.798 70.4504 14.798H70.45Z" />
	<path d="M97.9 27.9636C97.7667 27.9636 97.6467 27.917 97.54 27.8238C97.4467 27.7172 97.4 27.5974 97.4 27.4643V14.4817C97.4 14.3352 97.4467 14.2153 97.54 14.1221C97.6467 14.029 97.7667 13.9823 97.9 13.9823H100.06C100.38 13.9823 100.613 14.1288 100.76 14.4217L104.28 20.7133L107.8 14.4217C107.947 14.1288 108.18 13.9823 108.5 13.9823H110.64C110.787 13.9823 110.907 14.029 111 14.1221C111.107 14.2153 111.16 14.3352 111.16 14.4817V27.4643C111.16 27.6108 111.107 27.7306 111 27.8238C110.907 27.917 110.787 27.9636 110.64 27.9636H108.26C108.113 27.9636 107.987 27.917 107.88 27.8238C107.787 27.7306 107.74 27.6108 107.74 27.4643V19.9743L105.5 24.1487C105.327 24.455 105.093 24.6081 104.8 24.6081H103.76C103.587 24.6081 103.447 24.5682 103.34 24.4883C103.233 24.4084 103.14 24.2952 103.06 24.1487L100.8 19.9743V27.4643C100.8 27.5974 100.753 27.7172 100.66 27.8238C100.567 27.917 100.447 27.9636 100.3 27.9636H97.9ZM118.063 27.9636C117.929 27.9636 117.809 27.917 117.702 27.8238C117.609 27.7172 117.562 27.5974 117.562 27.4643V23.17L112.923 14.6215C112.883 14.5016 112.863 14.4284 112.863 14.4018C112.863 14.2952 112.903 14.202 112.983 14.1221C113.076 14.029 113.183 13.9823 113.303 13.9823H115.803C116.069 13.9823 116.303 14.1221 116.503 14.4018L119.363 19.5549L122.243 14.4018C122.403 14.1221 122.636 13.9823 122.943 13.9823H125.443C125.563 13.9823 125.663 14.029 125.743 14.1221C125.823 14.202 125.863 14.2952 125.863 14.4018C125.863 14.4684 125.849 14.5416 125.823 14.6215L121.183 23.17V27.4643C121.183 27.6108 121.129 27.7306 121.023 27.8238C120.929 27.917 120.809 27.9636 120.663 27.9636H118.063ZM137.047 28.1633C135.127 28.1633 133.627 27.6973 132.547 26.7652C131.467 25.8198 130.894 24.4816 130.827 22.7506C130.814 22.3644 130.807 21.7519 130.807 20.913C130.807 20.0742 130.814 19.4617 130.827 19.0755C130.894 17.3845 131.474 16.0795 132.567 15.1607C133.674 14.242 135.167 13.7826 137.047 13.7826C138.314 13.7826 139.414 13.989 140.347 14.4018C141.294 14.8145 142.014 15.3405 142.507 15.9797C143.014 16.6188 143.281 17.2779 143.307 17.957C143.307 18.0768 143.261 18.1767 143.167 18.2566C143.087 18.3365 142.987 18.3764 142.867 18.3764H139.947C139.814 18.3764 139.707 18.3565 139.627 18.3165C139.547 18.2766 139.481 18.2034 139.427 18.0968C139.254 17.7106 138.981 17.3778 138.607 17.0982C138.234 16.8052 137.714 16.6587 137.047 16.6587C135.461 16.6587 134.627 17.4976 134.547 19.1754C134.534 19.5482 134.527 20.1274 134.527 20.913C134.527 21.6853 134.534 22.2645 134.547 22.6507C134.627 24.4084 135.481 25.2872 137.107 25.2872C137.894 25.2872 138.521 25.0875 138.987 24.688C139.467 24.2752 139.707 23.6494 139.707 22.8105V22.431H137.827C137.681 22.431 137.561 22.3844 137.467 22.2912C137.374 22.1846 137.327 22.0582 137.327 21.9117V20.4337C137.327 20.2872 137.374 20.1673 137.467 20.0742C137.561 19.9676 137.681 19.9144 137.827 19.9144H142.867C143.014 19.9144 143.134 19.9676 143.227 20.0742C143.321 20.1673 143.367 20.2872 143.367 20.4337V22.7106C143.367 23.8424 143.107 24.8211 142.587 25.6467C142.067 26.4589 141.327 27.0848 140.367 27.5242C139.421 27.9503 138.314 28.1633 137.047 28.1633ZM144.549 27.9636C144.443 27.9636 144.343 27.9237 144.249 27.8438C144.169 27.7506 144.129 27.6507 144.129 27.5442C144.129 27.4643 144.136 27.4044 144.149 27.3644L148.849 14.5416C148.889 14.3818 148.976 14.2487 149.109 14.1421C149.243 14.0356 149.416 13.9823 149.629 13.9823H152.589C152.803 13.9823 152.976 14.0356 153.109 14.1421C153.243 14.2487 153.329 14.3818 153.369 14.5416L158.049 27.3644L158.089 27.5442C158.089 27.6507 158.043 27.7506 157.949 27.8438C157.869 27.9237 157.769 27.9636 157.649 27.9636H155.189C154.869 27.9636 154.656 27.8238 154.549 27.5442L153.769 25.5069H148.429L147.669 27.5442C147.563 27.8238 147.343 27.9636 147.009 27.9636H144.549ZM152.969 22.6307L151.109 17.3578L149.249 22.6307H152.969ZM160.166 27.9636C160.032 27.9636 159.912 27.917 159.806 27.8238C159.712 27.7172 159.666 27.5974 159.666 27.4643V14.4817C159.666 14.3352 159.712 14.2153 159.806 14.1221C159.912 14.029 160.032 13.9823 160.166 13.9823H162.806C162.952 13.9823 163.072 14.029 163.166 14.1221C163.259 14.2153 163.306 14.3352 163.306 14.4817V24.9476H169.366C169.512 24.9476 169.632 25.0009 169.726 25.1074C169.819 25.2006 169.866 25.3204 169.866 25.467V27.4643C169.866 27.5974 169.819 27.7172 169.726 27.8238C169.632 27.917 169.512 27.9636 169.366 27.9636H160.166ZM172.099 27.9636C171.966 27.9636 171.846 27.917 171.739 27.8238C171.646 27.7172 171.599 27.5974 171.599 27.4643V14.4817C171.599 14.3352 171.646 14.2153 171.739 14.1221C171.846 14.029 171.966 13.9823 172.099 13.9823H174.739C174.886 13.9823 175.006 14.029 175.099 14.1221C175.193 14.2153 175.239 14.3352 175.239 14.4817V24.9476H181.299C181.446 24.9476 181.566 25.0009 181.659 25.1074C181.753 25.2006 181.799 25.3204 181.799 25.467V27.4643C181.799 27.5974 181.753 27.7172 181.659 27.8238C181.566 27.917 181.446 27.9636 181.299 27.9636H172.099ZM184.033 27.9636C183.899 27.9636 183.779 27.917 183.673 27.8238C183.579 27.7172 183.533 27.5974 183.533 27.4643V14.4817C183.533 14.3352 183.579 14.2153 183.673 14.1221C183.779 14.029 183.899 13.9823 184.033 13.9823H193.373C193.519 13.9823 193.639 14.029 193.733 14.1221C193.826 14.2153 193.873 14.3352 193.873 14.4817V16.3591C193.873 16.4923 193.826 16.6121 193.733 16.7187C193.639 16.8118 193.519 16.8585 193.373 16.8585H186.993V19.5549H192.933C193.079 19.5549 193.199 19.6081 193.293 19.7147C193.386 19.8078 193.433 19.9277 193.433 20.0742V21.8118C193.433 21.945 193.386 22.0648 193.293 22.1714C193.199 22.2645 193.079 22.3112 192.933 22.3112H186.993V25.0875H193.533C193.679 25.0875 193.799 25.1341 193.893 25.2273C193.986 25.3204 194.033 25.4403 194.033 25.5868V27.4643C194.033 27.5974 193.986 27.7172 193.893 27.8238C193.799 27.917 193.679 27.9636 193.533 27.9636H184.033ZM196.806 27.9636C196.673 27.9636 196.553 27.917 196.446 27.8238C196.353 27.7172 196.306 27.5974 196.306 27.4643V14.4817C196.306 14.3352 196.353 14.2153 196.446 14.1221C196.553 14.029 196.673 13.9823 196.806 13.9823H202.246C203.993 13.9823 205.353 14.3818 206.326 15.1807C207.313 15.9664 207.806 17.0849 207.806 18.5362C207.806 19.4683 207.586 20.2606 207.146 20.913C206.706 21.5655 206.1 22.0648 205.326 22.411L208.066 27.3245C208.106 27.4044 208.126 27.4776 208.126 27.5442C208.126 27.6507 208.08 27.7506 207.986 27.8438C207.906 27.9237 207.813 27.9636 207.706 27.9636H205.046C204.66 27.9636 204.386 27.7838 204.226 27.4243L201.946 23.0302H199.906V27.4643C199.906 27.6108 199.853 27.7306 199.746 27.8238C199.653 27.917 199.533 27.9636 199.386 27.9636H196.806ZM202.206 20.194C202.82 20.194 203.286 20.0475 203.606 19.7546C203.926 19.4483 204.086 19.0289 204.086 18.4963C204.086 17.9637 203.926 17.5443 203.606 17.238C203.3 16.9184 202.833 16.7586 202.206 16.7586H199.906V20.194H202.206ZM213.688 27.9636C213.554 27.9636 213.434 27.917 213.327 27.8238C213.234 27.7172 213.188 27.5974 213.188 27.4643V23.17L208.548 14.6215C208.508 14.5016 208.488 14.4284 208.488 14.4018C208.488 14.2952 208.528 14.202 208.608 14.1221C208.701 14.029 208.808 13.9823 208.928 13.9823H211.428C211.694 13.9823 211.928 14.1221 212.128 14.4018L214.988 19.5549L217.868 14.4018C218.028 14.1221 218.261 13.9823 218.568 13.9823H221.068C221.188 13.9823 221.288 14.029 221.368 14.1221C221.448 14.202 221.488 14.2952 221.488 14.4018C221.488 14.4684 221.474 14.5416 221.448 14.6215L216.808 23.17V27.4643C216.808 27.6108 216.754 27.7306 216.648 27.8238C216.554 27.917 216.434 27.9636 216.288 27.9636H213.688Z" />
	<path d="M97.4299 54.9271C97.3432 54.9271 97.2696 54.9011 97.2089 54.8492C97.1569 54.7886 97.1309 54.7151 97.1309 54.6285V46.1508C97.1309 46.0557 97.1569 45.9821 97.2089 45.9301C97.2696 45.8695 97.3432 45.8393 97.4299 45.8393H100.381C101.69 45.8393 102.634 46.1336 103.215 46.7221C103.796 47.302 104.099 48.1804 104.125 49.3575C104.134 49.6085 104.138 49.946 104.138 50.3702C104.138 50.7943 104.134 51.1362 104.125 51.3958C104.099 52.218 103.96 52.8888 103.709 53.4081C103.466 53.9187 103.081 54.2996 102.552 54.5506C102.023 54.8015 101.321 54.9271 100.446 54.9271H97.4299ZM100.381 53.8236C100.979 53.8236 101.451 53.7414 101.798 53.5769C102.153 53.4124 102.409 53.1528 102.565 52.7979C102.73 52.4344 102.821 51.9498 102.838 51.3439C102.855 50.8246 102.864 50.5 102.864 50.3702C102.864 50.2317 102.855 49.9115 102.838 49.4095C102.821 48.5526 102.617 47.9295 102.227 47.54C101.837 47.1418 101.2 46.9428 100.316 46.9428H98.4049V53.8236H100.381ZM108.629 55.0569C107.736 55.0569 107.021 54.7843 106.484 54.239C105.955 53.685 105.665 52.932 105.613 51.98L105.6 51.5386L105.613 51.1102C105.674 50.1754 105.968 49.4311 106.497 48.8772C107.034 48.3232 107.741 48.0463 108.616 48.0463C109.578 48.0463 110.323 48.3536 110.852 48.9681C111.381 49.5739 111.645 50.3961 111.645 51.4348V51.6555C111.645 51.742 111.615 51.8155 111.554 51.8762C111.502 51.9281 111.433 51.9541 111.346 51.9541H106.848V52.0709C106.874 52.6334 107.043 53.1138 107.355 53.512C107.676 53.9014 108.096 54.0962 108.616 54.0962C109.015 54.0962 109.34 54.0183 109.591 53.8625C109.851 53.698 110.042 53.5292 110.163 53.3562C110.241 53.2523 110.297 53.1917 110.332 53.1744C110.375 53.1485 110.449 53.1355 110.553 53.1355H111.19C111.268 53.1355 111.333 53.1571 111.385 53.2004C111.437 53.2436 111.463 53.3042 111.463 53.3821C111.463 53.5726 111.342 53.8019 111.099 54.0702C110.865 54.3386 110.531 54.5723 110.098 54.7713C109.673 54.9617 109.184 55.0569 108.629 55.0569ZM110.41 51.0583V51.0193C110.41 50.4221 110.245 49.9375 109.916 49.5653C109.595 49.1845 109.162 48.994 108.616 48.994C108.07 48.994 107.637 49.1845 107.316 49.5653C107.004 49.9375 106.848 50.4221 106.848 51.0193V51.0583H110.41ZM115.539 55.0569C114.933 55.0569 114.421 54.9617 114.005 54.7713C113.598 54.5723 113.29 54.3472 113.082 54.0962C112.883 53.8452 112.783 53.6375 112.783 53.473C112.783 53.3864 112.814 53.3215 112.874 53.2783C112.944 53.2264 113.013 53.2004 113.082 53.2004H113.667C113.754 53.2004 113.832 53.2436 113.901 53.3302C114.109 53.5726 114.335 53.7629 114.577 53.9014C114.82 54.04 115.145 54.1092 115.552 54.1092C116.003 54.1092 116.367 54.0226 116.644 53.8495C116.93 53.6678 117.073 53.4211 117.073 53.1095C117.073 52.9018 117.013 52.733 116.891 52.6032C116.779 52.4647 116.579 52.3478 116.293 52.2527C116.016 52.1488 115.6 52.0362 115.045 51.9151C114.291 51.7506 113.754 51.5127 113.433 51.2011C113.121 50.8895 112.965 50.487 112.965 49.9937C112.965 49.6648 113.061 49.3532 113.251 49.0589C113.451 48.756 113.737 48.5137 114.109 48.3319C114.491 48.1415 114.946 48.0463 115.474 48.0463C116.029 48.0463 116.501 48.1372 116.891 48.3189C117.281 48.5007 117.572 48.7171 117.762 48.9681C117.962 49.2104 118.061 49.4138 118.061 49.5782C118.061 49.6561 118.031 49.721 117.97 49.773C117.918 49.8249 117.853 49.8509 117.775 49.8509H117.229C117.125 49.8509 117.039 49.8076 116.969 49.721C116.831 49.5566 116.709 49.4311 116.605 49.3446C116.51 49.2494 116.367 49.1671 116.176 49.0979C115.994 49.0287 115.76 48.994 115.474 48.994C115.058 48.994 114.738 49.0849 114.512 49.2667C114.287 49.4397 114.174 49.6691 114.174 49.9547C114.174 50.1365 114.222 50.2923 114.317 50.4221C114.413 50.5432 114.595 50.6558 114.863 50.7597C115.141 50.8635 115.539 50.9717 116.059 51.0842C116.883 51.2573 117.463 51.5084 117.801 51.8372C118.148 52.1575 118.321 52.5685 118.321 53.0706C118.321 53.4428 118.213 53.7803 117.996 54.0832C117.78 54.3861 117.459 54.6242 117.034 54.7972C116.618 54.9703 116.12 55.0569 115.539 55.0569ZM120.021 46.9168C119.935 46.9168 119.861 46.8908 119.8 46.8389C119.748 46.7783 119.722 46.7048 119.722 46.6182V45.9171C119.722 45.8306 119.748 45.7571 119.8 45.6964C119.861 45.6358 119.935 45.6056 120.021 45.6056H120.84C120.927 45.6056 121.001 45.6358 121.061 45.6964C121.122 45.7571 121.152 45.8306 121.152 45.9171V46.6182C121.152 46.7048 121.122 46.7783 121.061 46.8389C121.001 46.8908 120.927 46.9168 120.84 46.9168H120.021ZM120.125 54.9271C120.039 54.9271 119.965 54.9011 119.904 54.8492C119.852 54.7886 119.826 54.7151 119.826 54.6285V48.4747C119.826 48.3881 119.852 48.3189 119.904 48.267C119.965 48.2064 120.039 48.1761 120.125 48.1761H120.749C120.836 48.1761 120.905 48.2064 120.957 48.267C121.018 48.3189 121.048 48.3881 121.048 48.4747V54.6285C121.048 54.7151 121.018 54.7886 120.957 54.8492C120.905 54.9011 120.836 54.9271 120.749 54.9271H120.125ZM125.744 57.7832C125.033 57.7832 124.461 57.6621 124.028 57.4197C123.594 57.186 123.287 56.9177 123.105 56.6148C122.923 56.3119 122.823 56.0393 122.806 55.7969C122.797 55.7103 122.823 55.6368 122.884 55.5762C122.953 55.5156 123.027 55.4853 123.105 55.4853H123.729C123.807 55.4853 123.872 55.5026 123.924 55.5373C123.976 55.5805 124.019 55.6541 124.054 55.758C124.158 56.0349 124.327 56.273 124.561 56.472C124.803 56.6797 125.176 56.7836 125.679 56.7836C126.32 56.7836 126.792 56.6451 127.096 56.3681C127.399 56.0998 127.551 55.6194 127.551 54.9271V54.0443C127.325 54.3299 127.039 54.5593 126.693 54.7323C126.346 54.8968 125.934 54.979 125.458 54.979C124.539 54.979 123.85 54.6891 123.391 54.1092C122.94 53.5207 122.702 52.7763 122.676 51.8762L122.663 51.5127L122.676 51.1621C122.702 50.2706 122.944 49.5306 123.404 48.9421C123.863 48.3449 124.548 48.0463 125.458 48.0463C126.368 48.0463 127.078 48.3795 127.59 49.046V48.4877C127.59 48.4011 127.616 48.3276 127.668 48.267C127.728 48.2064 127.802 48.1761 127.889 48.1761H128.487C128.573 48.1761 128.647 48.2064 128.708 48.267C128.768 48.3276 128.799 48.4011 128.799 48.4877V54.7843C128.799 56.7836 127.78 57.7832 125.744 57.7832ZM125.718 53.9404C126.307 53.9404 126.753 53.7457 127.057 53.3562C127.36 52.9667 127.525 52.5036 127.551 51.967C127.559 51.8891 127.564 51.7376 127.564 51.5127C127.564 51.2962 127.559 51.1491 127.551 51.0712C127.525 50.5347 127.36 50.0716 127.057 49.6821C126.762 49.2926 126.316 49.0979 125.718 49.0979C125.102 49.0979 124.656 49.2883 124.379 49.6691C124.101 50.0499 123.95 50.5519 123.924 51.1751L123.911 51.5127L123.924 51.8632C123.95 52.4777 124.101 52.9797 124.379 53.3692C124.656 53.75 125.102 53.9404 125.718 53.9404ZM131.031 54.9271C130.944 54.9271 130.87 54.9011 130.81 54.8492C130.758 54.7886 130.732 54.7151 130.732 54.6285V48.4747C130.732 48.3881 130.758 48.3189 130.81 48.267C130.87 48.2064 130.944 48.1761 131.031 48.1761H131.642C131.728 48.1761 131.798 48.2064 131.85 48.267C131.91 48.3189 131.941 48.3881 131.941 48.4747V49.046C132.192 48.7257 132.487 48.479 132.825 48.3059C133.171 48.1329 133.6 48.0463 134.112 48.0463C134.944 48.0463 135.589 48.3146 136.049 48.8512C136.517 49.3792 136.751 50.0846 136.751 50.9674V54.6285C136.751 54.7151 136.72 54.7886 136.66 54.8492C136.608 54.9011 136.538 54.9271 136.452 54.9271H135.802C135.715 54.9271 135.641 54.9011 135.581 54.8492C135.529 54.7886 135.503 54.7151 135.503 54.6285V51.0323C135.503 50.4178 135.351 49.9418 135.048 49.6042C134.753 49.2667 134.324 49.0979 133.761 49.0979C133.215 49.0979 132.781 49.271 132.461 49.6172C132.14 49.9547 131.98 50.4264 131.98 51.0323V54.6285C131.98 54.7151 131.949 54.7886 131.889 54.8492C131.837 54.9011 131.767 54.9271 131.681 54.9271H131.031ZM142.629 57.3938C142.56 57.3938 142.499 57.3678 142.447 57.3159C142.395 57.2639 142.369 57.2033 142.369 57.1341C142.369 57.0735 142.391 56.9956 142.434 56.9004L143.435 54.5246L140.952 48.6695C140.909 48.5569 140.887 48.4834 140.887 48.4488C140.887 48.3709 140.913 48.3059 140.965 48.254C141.017 48.2021 141.082 48.1761 141.16 48.1761H141.797C141.936 48.1761 142.04 48.2497 142.109 48.3968L144.085 53.1225L146.113 48.3968C146.183 48.2497 146.291 48.1761 146.438 48.1761H147.049C147.127 48.1761 147.192 48.2021 147.244 48.254C147.296 48.3059 147.322 48.3666 147.322 48.4358C147.322 48.4617 147.301 48.5396 147.257 48.6695L143.565 57.1731C143.496 57.3202 143.388 57.3938 143.24 57.3938H142.629ZM151.16 55.0569C150.206 55.0569 149.465 54.7886 148.937 54.252C148.417 53.7154 148.139 53.0014 148.105 52.1098L148.092 51.5516L148.105 50.9933C148.139 50.1105 148.421 49.4008 148.95 48.8642C149.478 48.3189 150.215 48.0463 151.16 48.0463C152.104 48.0463 152.841 48.3189 153.37 48.8642C153.898 49.4008 154.18 50.1105 154.215 50.9933C154.223 51.0885 154.228 51.2747 154.228 51.5516C154.228 51.8285 154.223 52.0147 154.215 52.1098C154.18 53.0014 153.898 53.7154 153.37 54.252C152.85 54.7886 152.113 55.0569 151.16 55.0569ZM151.16 54.0572C151.706 54.0572 152.135 53.8842 152.447 53.5379C152.767 53.1917 152.941 52.6941 152.967 52.0449C152.975 51.9584 152.98 51.794 152.98 51.5516C152.98 51.3092 152.975 51.1448 152.967 51.0583C152.941 50.4091 152.767 49.9115 152.447 49.5653C152.135 49.219 151.706 49.046 151.16 49.046C150.614 49.046 150.18 49.219 149.86 49.5653C149.539 49.9115 149.37 50.4091 149.353 51.0583L149.34 51.5516L149.353 52.0449C149.37 52.6941 149.539 53.1917 149.86 53.5379C150.18 53.8842 150.614 54.0572 151.16 54.0572ZM158.378 55.0569C157.554 55.0569 156.917 54.793 156.467 54.265C156.016 53.7284 155.791 53.0186 155.791 52.1358V48.4747C155.791 48.3881 155.817 48.3189 155.869 48.267C155.929 48.2064 156.003 48.1761 156.09 48.1761H156.74C156.826 48.1761 156.896 48.2064 156.948 48.267C157.008 48.3189 157.039 48.3881 157.039 48.4747V52.0709C157.039 53.3605 157.602 54.0053 158.729 54.0053C159.275 54.0053 159.708 53.8365 160.029 53.499C160.349 53.1528 160.51 52.6768 160.51 52.0709V48.4747C160.51 48.3881 160.536 48.3189 160.588 48.267C160.648 48.2064 160.722 48.1761 160.809 48.1761H161.459C161.545 48.1761 161.615 48.2064 161.667 48.267C161.719 48.3189 161.745 48.3881 161.745 48.4747V54.6285C161.745 54.7151 161.719 54.7886 161.667 54.8492C161.615 54.9011 161.545 54.9271 161.459 54.9271H160.848C160.761 54.9271 160.687 54.9011 160.627 54.8492C160.575 54.7886 160.549 54.7151 160.549 54.6285V54.0572C160.306 54.3861 160.011 54.6372 159.665 54.8102C159.318 54.9747 158.889 55.0569 158.378 55.0569ZM163.975 54.9271C163.888 54.9271 163.815 54.9011 163.754 54.8492C163.702 54.7886 163.676 54.7151 163.676 54.6285V48.4877C163.676 48.4011 163.702 48.3276 163.754 48.267C163.815 48.2064 163.888 48.1761 163.975 48.1761H164.573C164.66 48.1761 164.733 48.2064 164.794 48.267C164.855 48.3276 164.885 48.4011 164.885 48.4877V49.0589C165.24 48.4704 165.847 48.1761 166.705 48.1761H167.212C167.299 48.1761 167.368 48.2064 167.42 48.267C167.481 48.3189 167.511 48.3881 167.511 48.4747V49.007C167.511 49.0936 167.481 49.1628 167.42 49.2147C167.368 49.2667 167.299 49.2926 167.212 49.2926H166.432C165.964 49.2926 165.596 49.4311 165.327 49.7081C165.058 49.9764 164.924 50.3442 164.924 50.8116V54.6285C164.924 54.7151 164.894 54.7886 164.833 54.8492C164.772 54.9011 164.699 54.9271 164.612 54.9271H163.975ZM171.808 54.9271C171.722 54.9271 171.648 54.9011 171.587 54.8492C171.535 54.7886 171.509 54.7151 171.509 54.6285V46.008C171.509 45.9214 171.535 45.8522 171.587 45.8003C171.648 45.7397 171.722 45.7094 171.808 45.7094H172.419C172.506 45.7094 172.575 45.7397 172.627 45.8003C172.688 45.8522 172.718 45.9214 172.718 46.008V54.6285C172.718 54.7151 172.688 54.7886 172.627 54.8492C172.575 54.9011 172.506 54.9271 172.419 54.9271H171.808ZM174.852 46.9168C174.766 46.9168 174.692 46.8908 174.631 46.8389C174.579 46.7783 174.553 46.7048 174.553 46.6182V45.9171C174.553 45.8306 174.579 45.7571 174.631 45.6964C174.692 45.6358 174.766 45.6056 174.852 45.6056H175.671C175.758 45.6056 175.832 45.6358 175.892 45.6964C175.953 45.7571 175.983 45.8306 175.983 45.9171V46.6182C175.983 46.7048 175.953 46.7783 175.892 46.8389C175.832 46.8908 175.758 46.9168 175.671 46.9168H174.852ZM174.956 54.9271C174.87 54.9271 174.796 54.9011 174.735 54.8492C174.683 54.7886 174.657 54.7151 174.657 54.6285V48.4747C174.657 48.3881 174.683 48.3189 174.735 48.267C174.796 48.2064 174.87 48.1761 174.956 48.1761H175.58C175.667 48.1761 175.736 48.2064 175.788 48.267C175.849 48.3189 175.879 48.3881 175.879 48.4747V54.6285C175.879 54.7151 175.849 54.7886 175.788 54.8492C175.736 54.9011 175.667 54.9271 175.58 54.9271H174.956ZM178.781 54.9271C178.694 54.9271 178.62 54.9011 178.56 54.8492C178.508 54.7886 178.482 54.7151 178.482 54.6285V49.2147H177.377C177.29 49.2147 177.216 49.1888 177.156 49.1368C177.104 49.0762 177.078 49.0027 177.078 48.9161V48.4747C177.078 48.3881 177.104 48.3189 177.156 48.267C177.216 48.2064 177.29 48.1761 177.377 48.1761H178.482V47.527C178.482 46.0557 179.227 45.3199 180.718 45.3199H181.498C181.584 45.3199 181.654 45.3502 181.706 45.4108C181.766 45.4628 181.797 45.532 181.797 45.6185V46.06C181.797 46.1465 181.766 46.22 181.706 46.2807C181.654 46.3326 181.584 46.3586 181.498 46.3586H180.744C180.354 46.3586 180.081 46.4624 179.925 46.6701C179.769 46.8692 179.691 47.1765 179.691 47.5919V48.1761H181.368C181.454 48.1761 181.524 48.2064 181.576 48.267C181.636 48.3189 181.667 48.3881 181.667 48.4747V48.9161C181.667 49.0027 181.636 49.0762 181.576 49.1368C181.524 49.1888 181.454 49.2147 181.368 49.2147H179.691V54.6285C179.691 54.7151 179.66 54.7886 179.6 54.8492C179.548 54.9011 179.478 54.9271 179.392 54.9271H178.781ZM185.385 55.0569C184.492 55.0569 183.777 54.7843 183.24 54.239C182.711 53.685 182.421 52.932 182.369 51.98L182.356 51.5386L182.369 51.1102C182.429 50.1754 182.724 49.4311 183.253 48.8772C183.79 48.3232 184.496 48.0463 185.372 48.0463C186.334 48.0463 187.079 48.3536 187.608 48.9681C188.136 49.5739 188.401 50.3961 188.401 51.4348V51.6555C188.401 51.742 188.37 51.8155 188.31 51.8762C188.258 51.9281 188.188 51.9541 188.102 51.9541H183.604V52.0709C183.63 52.6334 183.799 53.1138 184.111 53.512C184.431 53.9014 184.852 54.0962 185.372 54.0962C185.77 54.0962 186.095 54.0183 186.347 53.8625C186.607 53.698 186.797 53.5292 186.919 53.3562C186.997 53.2523 187.053 53.1917 187.088 53.1744C187.131 53.1485 187.205 53.1355 187.309 53.1355H187.946C188.024 53.1355 188.089 53.1571 188.141 53.2004C188.193 53.2436 188.219 53.3042 188.219 53.3821C188.219 53.5726 188.097 53.8019 187.855 54.0702C187.621 54.3386 187.287 54.5723 186.854 54.7713C186.429 54.9617 185.939 55.0569 185.385 55.0569ZM187.166 51.0583V51.0193C187.166 50.4221 187.001 49.9375 186.672 49.5653C186.351 49.1845 185.918 48.994 185.372 48.994C184.826 48.994 184.392 49.1845 184.072 49.5653C183.76 49.9375 183.604 50.4221 183.604 51.0193V51.0583H187.166Z" />
	<defs>
		<clipPath id="clip0">
			<rect width="222" height="74.8997" fill="white" />
		</clipPath>
	</defs>
</svg>
